<svg width="16" height="17" viewBox="0 0 16 17" fill="none" xmlns="http://www.w3.org/2000/svg">
<path d="M8.00057 4.8751C8.46081 4.8751 8.8339 4.50201 8.8339 4.04177C8.8339 3.58153 8.46081 3.20844 8.00057 3.20844C7.54033 3.20844 7.16724 3.58153 7.16724 4.04177C7.16724 4.50201 7.54033 4.8751 8.00057 4.8751ZM14.0002 12.3407V7.00007H14.0932C14.9865 7.00007 15.3522 5.85264 14.6236 5.33577L8.77204 1.18435C8.30995 0.856523 7.69115 0.856517 7.22906 1.18434L1.37727 5.33576C0.648707 5.85263 1.01439 7.00007 1.90767 7.00007H2.00024V12.3407C1.39886 12.7257 1.00024 13.3997 1.00024 14.1667V15.5001C1.00024 15.7762 1.2241 16.0001 1.50024 16.0001H14.5002C14.7764 16.0001 15.0002 15.7762 15.0002 15.5001V14.1667C15.0002 13.3997 14.6016 12.7257 14.0002 12.3407ZM7.80767 1.99994C7.92319 1.91799 8.07789 1.91799 8.19342 1.99995L13.8317 6.00007H10.5023L10.5002 6.00006L10.4981 6.00007H2.16915L7.80767 1.99994ZM13.0002 7.00007V12.0064C12.9452 12.0022 12.8897 12.0001 12.8336 12.0001H11.0002L11.0002 7.00007H13.0002ZM3.00024 12.0064V7.00007H5.00024L5.00024 12.0001H3.16691C3.11083 12.0001 3.05525 12.0022 3.00024 12.0064ZM3.16691 13.0001H12.8336C13.4779 13.0001 14.0002 13.5224 14.0002 14.1667V15.0001H2.00024V14.1667C2.00024 13.5224 2.52258 13.0001 3.16691 13.0001ZM7.50024 12.0001H6.00024L6.00024 7.00007H7.50024L7.50024 12.0001ZM8.50024 12.0001L8.50024 7.00007H10.0002L10.0002 12.0001H8.50024Z" fill="#667085" stroke="#667085" stroke-width="0.2" stroke-linecap="round" stroke-linejoin="round"/>
</svg>
