<svg width="12" height="14" viewBox="0 0 12 14" fill="none" xmlns="http://www.w3.org/2000/svg">
<path d="M8.78033 0.21967C8.48744 -0.0732233 8.01256 -0.0732233 7.71967 0.21967C7.42678 0.512563 7.42678 0.987437 7.71967 1.28033L9.43934 3H0.75C0.335786 3 0 3.33579 0 3.75C0 4.16421 0.335786 4.5 0.75 4.5H9.43934L7.71967 6.21967C7.42678 6.51256 7.42678 6.98744 7.71967 7.28033C8.01256 7.57322 8.48744 7.57322 8.78033 7.28033L11.7803 4.28033C12.0732 3.98744 12.0732 3.51256 11.7803 3.21967L8.78033 0.21967ZM4.28033 7.78033C4.57322 7.48744 4.57322 7.01256 4.28033 6.71967C3.98744 6.42678 3.51256 6.42678 3.21967 6.71967L0.21967 9.71967C0.0790176 9.86032 0 10.0511 0 10.25C0 10.4489 0.0790176 10.6397 0.21967 10.7803L3.21967 13.7803C3.51256 14.0732 3.98744 14.0732 4.28033 13.7803C4.57322 13.4874 4.57322 13.0126 4.28033 12.7197L2.56066 11H11.25C11.6642 11 12 10.6642 12 10.25C12 9.83579 11.6642 9.5 11.25 9.5H2.56066L4.28033 7.78033Z" fill="#667085"/>
</svg>
