<svg width="16" height="18" viewBox="0 0 16 18" fill="none" xmlns="http://www.w3.org/2000/svg">
<path d="M5.5 0.85C5.14102 0.85 4.85 1.14101 4.85 1.5C4.85 1.85899 5.14102 2.15 5.5 2.15H9.5C9.85898 2.15 10.15 1.85899 10.15 1.5C10.15 1.14101 9.85898 0.85 9.5 0.85H5.5ZM13.2624 2.82293C13.0085 2.56909 12.597 2.56909 12.3431 2.82293C12.0893 3.07677 12.0893 3.48832 12.3431 3.74217L13.7573 5.15638C14.0112 5.41022 14.4227 5.41022 14.6766 5.15638C14.9304 4.90254 14.9304 4.49098 14.6766 4.23714L13.2624 2.82293ZM7.5 4.85C7.14102 4.85 6.85 5.14101 6.85 5.5V10.5C6.85 10.859 7.14102 11.15 7.5 11.15C7.85898 11.15 8.15 10.859 8.15 10.5V5.5C8.15 5.14102 7.85898 4.85 7.5 4.85ZM7.5 17.15C11.4488 17.15 14.65 13.9488 14.65 10C14.65 6.05116 11.4488 2.85 7.5 2.85C3.55116 2.85 0.35 6.05116 0.35 10C0.35 13.9488 3.55116 17.15 7.5 17.15ZM7.5 15.85C4.26913 15.85 1.65 13.2309 1.65 10C1.65 6.76913 4.26913 4.15 7.5 4.15C10.7309 4.15 13.35 6.76913 13.35 10C13.35 13.2309 10.7309 15.85 7.5 15.85Z" fill="#667085" stroke="#667085" stroke-width="0.3"/>
</svg>
