<svg width="14" height="18" viewBox="0 0 14 18" fill="none" xmlns="http://www.w3.org/2000/svg">
<path d="M1 7C1 3.68629 3.68629 1 7 1C10.3137 1 13 3.68629 13 7V10C13 11.1046 12.1046 12 11 12H10C9.44772 12 9 11.5523 9 11V8C9 7.44772 9.44772 7 10 7H12C12 4.23858 9.76142 2 7 2C4.23858 2 2 4.23858 2 7H4C4.55228 7 5 7.44772 5 8V11C5 11.5523 4.55228 12 4 12H2V13C2 14.1046 2.89543 15 4 15H5C5 13.8954 5.89543 13 7 13C8.10457 13 9 13.8954 9 15C9 16.1046 8.10457 17 7 17C6.25972 17 5.61337 16.5978 5.26756 16H4C2.34315 16 1 14.6569 1 13V7ZM12 8H10V11H11C11.5523 11 12 10.5523 12 10V8ZM2 11H4V8H2V11ZM6 15C6 15.5523 6.44772 16 7 16C7.55228 16 8 15.5523 8 15C8 14.4477 7.55228 14 7 14C6.44772 14 6 14.4477 6 15Z" fill="#667085" stroke="#667085" stroke-width="0.2"/>
</svg>
