<svg width="15" height="15" viewBox="0 0 19 24" fill="none" xmlns="http://www.w3.org/2000/svg">
<path d="M12.3482 0.263583L17.7423 5.6573C18.0616 5.97657 18.0909 6.47611 17.83 6.82846L17.743 6.92942L12.349 12.3352C11.9979 12.6871 11.428 12.6877 11.0762 12.3366C10.7563 12.0175 10.7267 11.5175 10.9878 11.1649L11.0748 11.0638L14.935 7.1964L0.9 7.19719C0.444365 7.19719 0.0678112 6.85861 0.00821629 6.41932L0 6.29719C0 5.84156 0.338585 5.465 0.777876 5.40541L0.9 5.39719L14.9374 5.3964L11.0755 1.53642C10.756 1.21691 10.7269 0.716912 10.9883 0.36457L11.0755 0.263625C11.395 -0.0559057 11.895 -0.0849692 12.2473 0.176445L12.3482 0.263583L17.7423 5.6573L12.3482 0.263583ZM18.0096 17.5789L18.0178 17.701C18.0178 18.1567 17.6792 18.5332 17.2399 18.5928L17.1178 18.601L3.08261 18.6L6.948 22.4633C7.26765 22.7827 7.29691 23.2827 7.03563 23.6352L6.94853 23.7361C6.62915 24.0558 6.12916 24.085 5.77672 23.8238L5.67574 23.7367L0.275741 18.3412C-0.0439127 18.0218 -0.0731694 17.5218 0.188109 17.1694L0.275209 17.0684L5.67521 11.6639C6.02653 11.3123 6.59638 11.312 6.948 11.6633C7.26765 11.9827 7.29691 12.4827 7.03563 12.8352L6.94853 12.9361L3.08741 16.8L17.1178 16.801C17.5734 16.801 17.95 17.1396 18.0096 17.5789L18.0178 17.701L18.0096 17.5789Z" fill="#101828"/>
</svg>
