<svg width="15" height="15" viewBox="0 0 23 22" fill="none" xmlns="http://www.w3.org/2000/svg">
<path d="M0.666748 3C0.666748 1.34315 2.00989 0 3.66675 0H15.0001C16.6569 0 18.0001 1.34315 18.0001 3V13.3333H22.6667V17.6667C22.6667 20.0599 20.7267 22 18.3334 22H5.00008C2.60685 22 0.666748 20.0599 0.666748 17.6667V3ZM18.0001 15.3333V20H18.3334C19.6221 20 20.6667 18.9553 20.6667 17.6667V15.3333H18.0001ZM16.0001 20V3C16.0001 2.44772 15.5524 2 15.0001 2H3.66675C3.11446 2 2.66675 2.44772 2.66675 3V17.6667C2.66675 18.9553 3.71142 20 5.00008 20H16.0001ZM4.66676 6.33334C4.66676 5.78105 5.11448 5.33334 5.66676 5.33334H13.0001C13.5524 5.33334 14.0001 5.78105 14.0001 6.33334C14.0001 6.88562 13.5524 7.33334 13.0001 7.33334H5.66676C5.11448 7.33334 4.66676 6.88562 4.66676 6.33334ZM4.66676 11C4.66676 10.4477 5.11448 10 5.66676 10H13.0001C13.5524 10 14.0001 10.4477 14.0001 11C14.0001 11.5523 13.5524 12 13.0001 12H5.66676C5.11448 12 4.66676 11.5523 4.66676 11ZM4.66676 15.6667C4.66676 15.1144 5.11448 14.6667 5.66676 14.6667H9.0001C9.55238 14.6667 10.0001 15.1144 10.0001 15.6667C10.0001 16.219 9.55238 16.6667 9.0001 16.6667H5.66676C5.11448 16.6667 4.66676 16.219 4.66676 15.6667Z" fill="#101828"/>
</svg>
