<svg width="15" height="15" viewBox="0 0 24 24" fill="none" xmlns="http://www.w3.org/2000/svg">
<path d="M16.832 0L22.2965 0.000620842L22.4168 0.0173309L22.5354 0.0504559L22.6077 0.0811174C22.7028 0.122954 22.7919 0.18378 22.8702 0.262027L22.919 0.31488L22.9713 0.382537L23.0363 0.490684L23.0827 0.599066L23.1057 0.675957L23.122 0.75276L23.1332 0.865803L23.1338 6.30467C23.1338 6.80172 22.7308 7.20467 22.2338 7.20467C21.7782 7.20467 21.4016 6.86608 21.342 6.42679L21.3338 6.30467L21.3333 3.0708L13.6061 10.7997C13.2865 11.1192 12.7865 11.1483 12.4342 10.8869L12.3333 10.7997L8.69688 7.30709L1.86965 14.1343C1.51818 14.4858 0.948328 14.4858 0.596856 14.1343C0.277336 13.8148 0.248289 13.3148 0.509714 12.9625L0.596856 12.8615L8.06047 5.39791C8.37999 5.07839 8.87998 5.04934 9.23231 5.31076L9.33325 5.3979L12.9696 8.89052L20.0589 1.8H16.832C16.3763 1.8 15.9998 1.46142 15.9402 1.02212L15.932 0.9C15.932 0.444365 16.2705 0.0678106 16.7098 0.00821571L16.832 0ZM1.23325 18C1.73031 18 2.13325 18.4029 2.13325 18.9V23.1C2.13325 23.5971 1.73031 24 1.23325 24C0.736196 24 0.333252 23.5971 0.333252 23.1V18.9C0.333252 18.4029 0.736196 18 1.23325 18ZM8.13325 14.1C8.13325 13.6029 7.73031 13.2 7.23325 13.2C6.7362 13.2 6.33325 13.6029 6.33325 14.1V23.1C6.33325 23.5971 6.7362 24 7.23325 24C7.73031 24 8.13325 23.5971 8.13325 23.1V14.1ZM13.2333 15.6C13.7303 15.6 14.1333 16.0029 14.1333 16.5V23.1C14.1333 23.5971 13.7303 24 13.2333 24C12.7362 24 12.3333 23.5971 12.3333 23.1V16.5C12.3333 16.0029 12.7362 15.6 13.2333 15.6ZM20.1333 10.5C20.1333 10.0029 19.7303 9.6 19.2333 9.6C18.7362 9.6 18.3333 10.0029 18.3333 10.5V23.1C18.3333 23.5971 18.7362 24 19.2333 24C19.7303 24 20.1333 23.5971 20.1333 23.1V10.5Z" fill="#101828"/>
</svg>
